<?xml version="1.0" encoding="utf-8"?>
<!-- Generator: Adobe Illustrator 21.0.0, SVG Export Plug-In . SVG Version: 6.00 Build 0)  -->
<svg version="1.1" id="logo_wrap" xmlns="http://www.w3.org/2000/svg" xmlns:xlink="http://www.w3.org/1999/xlink" x="0px" y="0px"
	 viewBox="0 0 529.5 129.8" style="enable-background:new 0 0 529.5 129.8;" xml:space="preserve">
<style type="text/css">
	.st0{fill:#2E4161;}
	.st1{fill:#4DD3E3;}
	.st2{fill:#4AC9E1;}
	.st3{fill:#44B6DD;}
	.st4{fill:#3FA4D9;}
</style>
<title>logo_all</title>
<g id="logo">
	<path class="st0" d="M201.8,81.2c-1.8,1.2-3.7,2.2-5.7,3c-1.9,0.9-4,1.7-6,2.3c-12.7,4-26.6,1.8-37.5-5.8c-3.6-2.5-7-5.2-10.2-8.2
		c3.8,0.5,7.7,0.2,11.4-1c5-1.3,9.9-3.3,14.3-6c4.2-2.5,7.7-5.9,10.4-9.9c2.5-4.1,3.8-8.8,3.8-13.6c0-3.7-1.1-7.3-3.1-10.3
		c-2.3-3.2-5.4-5.8-9-7.3c-2.1-0.9-4.2-1.5-6.4-2c-0.5-10.7-7.2-19.6-23.5-19.6c-3.1,0-9,0.2-11.6,0.2h-0.7v28.9
		c-3.2,2.6-6,5.7-8.4,9.1c-0.6,0.9-1.2,1.9-1.6,2.9c-0.2,0.2,0.2,0.4,0.3,0.2c2.5-3.6,5.3-6.9,8.4-9.9c0.4-0.4,0.8-0.7,1.2-1v11.7
		h0.9c3.8,0,8.5,0.1,11,0.1c1.5,0,3.1-0.1,4.6-0.3c-2.6,3.3-5,6.7-7.3,10.2c-5.2,8-9.6,16.5-13,25.5c-1,2.5-1.8,5-2.6,7.5
		c-0.9,2.6-1.6,5.3-2.2,8c0,0.3,0.3,0.5,0.6,0.5c0.2,0,0.3-0.1,0.4-0.3c1.4-4.4,2.7-8.9,4.3-13.4c1.6-4.5,3.5-8.9,5.6-13.1
		c4.1-8.5,9.1-16.5,14.8-24l0.8-1c11.9-2.2,17.9-10.7,17.9-20.8c0.7,0.2,1.3,0.3,2,0.5c3.9,1.1,7.6,3.1,10.5,6
		c2.5,2.5,4.1,5.7,4.7,9.2c0.6,4.3,0,8.8-1.8,12.8c-2,4.2-5,7.9-8.8,10.6c-3.9,2.8-8.2,5.1-12.8,6.6c-2.4,0.8-4.9,1.5-7.4,2
		c-2.3,0.5-4.7,0.6-7.1,0.3c-1.1-0.2-2.2-0.6-3.2-1.1c-0.3-0.2-0.7-0.1-0.9,0.1s-0.1,0.7,0.1,0.9c7.1,6.5,14.6,13,23.9,16.1
		c10.7,3.6,22.5,3,32.8-1.7c1.1-0.5,2.2-1.1,3.3-1.8c1.1-0.6,2-1.4,3.1-2.2C202.4,81.4,202.1,80.9,201.8,81.2z M135.4,9.7h4.8
		c9.1,0,14.8,4.5,15.7,11.8c-5.2-0.1-10.4,0.9-15.2,2.8c-1.8,0.7-3.5,1.6-5.2,2.5L135.4,9.7z M156.1,23.3c0,8.8-5.9,14.6-15.9,14.6
		c-1,0-2.7,0-4.7-0.1v-9.9c0.7-0.4,1.4-0.8,2.2-1.2c4.2-2.1,8.6-3.5,13.3-4c1.7-0.2,3.4-0.2,5.1-0.2c0,0.3,0,0.6,0,1L156.1,23.3z"/>
	<path class="st0" d="M247.4,67.9c-1.6,0.7-3.1,1.6-4.6,2.5c-1.5,0.7-3.1,1.3-4.7,1.8c-2.5,0.7-5.1,0.9-7.6,0.6
		c-1-0.1-1.9-0.5-2.6-1.3c-0.6-0.9-0.6-2.2,0-3.1c1.2,0.7,2.6,1,4,0.9c1.7-0.1,3.3-0.8,4.5-2c1.2-1.1,1.6-3.3-0.5-3.8
		c-2.1-0.2-4.2,0.3-6,1.5c-1.7,0.8-3,2.3-3.7,4c-0.4,1.3,0.1,2.8,1.1,3.7c2,1.7,5.3,1.5,7.7,1.2c2.2-0.2,4.4-0.8,6.4-1.8
		c1.1-0.4,2.1-1,3.1-1.6c1.1-0.6,2.1-1.3,3-2.2C247.7,68.2,247.6,68,247.4,67.9L247.4,67.9z M228.2,67.9c1.1-1.2,2.5-2.2,4-2.8
		c0.8-0.4,1.6-0.6,2.5-0.6c0.5,0,0.9,0,1.4,0.2c0.5,0.2,0.4,0.6,0.2,1c-0.9,1.4-2.3,2.4-4,2.6C230.9,68.5,229.4,68.4,228.2,67.9
		L228.2,67.9z"/>
	<path class="st0" d="M286.5,63.1c-1.2,0.2-2.4,0.5-3.5,1c-4.9,2.1-9.2,5.5-12.3,9.9c1.4-2.8,2.9-5.6,4.5-8.3
		c2.1-3.6,4.5-7,6.9-10.3c0.2-0.2-0.2-0.6-0.4-0.3c-4.7,5.8-8.7,12-11.9,18.7c-1.3,2.6-2.5,5.3-3.7,8c-1,2.2-2,4.4-2.9,6.5
		c-2,5.4-3.7,10.9-5.4,16.4c-0.2,0.6-0.3,1.2-0.6,1.8s0.7,0.7,0.9,0.2c2.2-7.1,4.6-14.2,7.3-21c0.6-1.5,1.2-2.9,1.8-4.4
		c0.6-1,1.1-2.2,1.8-3.2c2.3-4.2,5.5-7.8,9.4-10.7c1.8-1.3,3.9-2.4,6-3.1c1.1-0.4,2.2-0.7,3.3-0.8c0.3,0,0.6,0,0.6,0.5
		c-0.1,0.4-0.2,0.7-0.5,1c-0.3,0.5-0.7,1-1,1.4c-1.7,1.9-3.7,3.5-6,4.6c-1.4,0.7-4.8,2.2-5.7,0c-0.2-0.3-0.7,0-0.6,0.3
		c0.6,2,3,2,4.7,1.5c2.3-0.8,4.4-2,6.2-3.6c0.9-0.8,1.7-1.7,2.5-2.7c0.6-0.7,1.8-2,1.2-3.1S287.4,62.9,286.5,63.1z"/>
	<path class="st0" d="M321.1,40.7c1.1-1.3,2-2.8,2.8-4.3l0.4-1v9.3h7.4V2.9h-6.9L311,22.4L296.8,2.9h-7.4v41.8h7.3v-30L310,33h1.1
		l13.2-18.5v16.3c-0.8-0.2-1.6-0.1-2.3,0.2c-1.4,0.8-2.7,1.7-4,2.7c-2.6,1.9-5,4-7.3,6.2c-4.6,4.5-8.6,9.7-11.9,15.3
		c-1.9,3.3-3.5,6.7-4.8,10.2c-1.5,3.9-2.2,8-2,12.2c0,0.6,1,0.6,1,0c0.1-3.5,0.7-6.9,1.8-10.3c1-3.1,2.3-6.1,3.8-9
		c0.1-0.2,0.2-0.4,0.3-0.6c5.4-2.2,10.3-5.3,14.7-9.1C316.4,46.2,318.9,43.6,321.1,40.7z M299.8,56.8c-0.1,0-0.2,0-0.2,0h-0.2
		c2.6-4.8,5.8-9.2,9.5-13.3c2-2.2,4.2-4.3,6.5-6.3c1.2-1,2.4-2,3.7-2.9c1.1-1,2.4-1.8,3.7-2.5c0.3-0.1,0.7-0.2,1-0.2
		c0.6,0.2,0.5,0.6,0.4,1c-0.1,0.8-0.3,1.5-0.6,2.2c-0.6,1.5-1.4,3-2.5,4.3c-2,2.7-4.2,5.2-6.7,7.5c-2.1,2-4.4,3.8-6.8,5.4
		C305.1,53.8,302.5,55.4,299.8,56.8z"/>
	<path class="st0" d="M363.5,68.5c-2.2,1-4.4,2.1-6.5,3.3c-2,1.3-4.1,2.8-6.1,4.3c-2.5,1.9-4.9,4-7.2,6.2c1.6-5.7,3.7-11.2,6.4-16.4
		c0.6-1,1.2-2,1.8-3.1c0.1-0.3-0.1-0.7-0.4-0.8c-0.2-0.1-0.4,0-0.6,0.1c-2.9,4.8-6.8,8.9-11.4,12.2c-1,0.8-2,1.4-3.2,1.8
		c-0.9,0.2-2.1,0.4-2.6-0.5c-0.3-0.6-0.3-1.4,0-2c0.2-0.7,0.5-1.4,0.9-2c0.6-1.2,1.2-2.3,2-3.4c0.9-1.4,2-2.7,3.1-4
		c0.5-0.6,1.1-1.1,1.7-1.6c0.6-0.6,1.2-1.2,1.8-1.8c0-0.1-0.1-0.2-0.2-0.2l0,0c-0.7,0.3-1.4,0.6-2,1.1c-0.7,0.5-1.3,1-1.8,1.6
		c-1.1,1.2-2.1,2.4-3,3.7c-0.4,0.5-0.8,1.1-1.1,1.6l0,0c-1.1,0.4-2.1,0.8-3.2,1.3c-1,0.5-2.1,0.9-3.3,1.3c-2.2,0.8-4.4,1.4-6.7,1.6
		c-1.4,0.2-4.9,0.5-4.9-1.8c0.2-2,1.1-3.8,2.6-5.1c0.1-0.1,0.3-0.2,0.3-0.3c0.6-0.5-0.2-1.3-0.9-0.8L319,65c-0.5,0.4-1,0.8-1.4,1.2
		V66c-1.4-2.5-4.6-2-7-1.5c-2.3,0.5-4.4,1.7-6.1,3.4c-1.5,1.6-2.8,5.1,0.2,5.8c1.3,0.2,2.7,0,4-0.4c1.3-0.4,2.5-0.9,3.7-1.6
		c1.3-0.8,2.5-1.7,3.7-2.6c-0.7,1.8-0.6,3.5,1.2,4.4c1.8,0.6,3.7,0.8,5.5,0.4c2.1-0.3,4.1-0.8,6-1.5c1-0.4,2-0.9,3.1-1.3
		c0.8-0.3,1.5-0.7,2.3-1.1c-0.2,0.3-0.4,0.7-0.6,1c-0.9,1.3-1.3,2.9-1.3,4.4c0.5,2.7,4,2,5.6,1.1c1.3-0.7,2.5-1.5,3.7-2.4
		c1.2-1,2.4-2,3.5-3.1l2-2c-2.1,4.9-3.9,9.9-5.3,15c-0.7,0.7-1.5,1.5-2.2,2.3c-7,7.4-12.9,15.7-17.6,24.7c-1.3,2.5-2.4,5.1-3.3,7.7
		c-0.8,2.3-1.2,4.7-1.1,7.2c0.1,1,0.5,1.9,1.3,2.5c0.8,0.6,1.9,0.8,2.9,0.6c2.3-0.6,4.3-2.1,5.5-4.2c3-4.4,5.4-9.2,7.2-14.2
		c2-5,3.8-10.2,5.3-15.4c1-3.6,2-7.2,3.1-10.8c5.3-5.3,11.3-9.9,17.8-13.7c1-0.6,2-1.2,2.9-1.7C364.1,68.8,363.8,68.3,363.5,68.5z
		 M307.6,72.5c-1,0.2-2.6,0.6-3.3-0.3s0.2-2.2,0.7-2.9c1.2-1.6,2.9-2.8,4.8-3.4c1.3-0.4,2.6-0.7,4-0.8c1.3-0.2,2.7,0.3,3.6,1.3
		c0,0.2,0.2,0.2,0.2,0C314.9,69.2,311.4,71.3,307.6,72.5L307.6,72.5z M340.3,89.7c-1.4,4.8-2.8,9.7-4.5,14.5c-0.9,2.6-2,5.2-3,7.7
		s-2,4.7-3.1,7c-1.1,2.3-2.5,4.4-4.1,6.4c-0.7,0.9-1.7,1.6-2.7,2.2c-0.9,0.5-2.1,0.5-3,0c-0.7-0.7-1-1.6-0.9-2.6
		c0-1.2,0.2-2.4,0.5-3.5c0.6-2.7,1.5-5.3,2.7-7.8c4.2-8.9,9.7-17.1,16.3-24.3c1-1,2-2.2,2.9-3.1C341,87.3,340.7,88.5,340.3,89.7
		L340.3,89.7z"/>
	<rect x="191.1" y="2.9" class="st0" width="7.3" height="41.8"/>
	<path class="st0" d="M265.2,44.7L247.6,2.8h-6.4l-17.7,41.9h5.3c-2.8,3.3-5.3,6.8-7.5,10.5c-1.7,3-3.2,6-4.5,9.2
		c-4.4,1.5-8.8,3.4-12.9,5.6c-2.2,1-4.5,1.8-6.9,2.3c-1.5,0.3-3,0.4-4.5,0.2c1.1-0.7,2-1.5,2.9-2.4c1-1,1.8-2.1,2.3-3.3
		c0.4-1.2-0.2-2.5-1.4-3c-0.9-0.4-1.9-0.5-2.8-0.2c-2.3,0.3-4.4,1.2-6.1,2.6c-1.8,1.4-4.5,4.4-2.9,6.8s4.5,1.3,6.7,0.3
		c2.8,0.5,5.6,0.3,8.3-0.6c6-1.7,11.3-5.3,17.1-7.6v0.2c-1.5,3.9-2.2,8-2,12.2c0,0.6,1,0.6,1,0c0.1-3.5,0.7-6.9,1.8-10.3
		c1-3.1,2.3-6.1,3.8-9c0.1-0.2,0.2-0.4,0.3-0.6c5.3-2.2,10.3-5.3,14.6-9.1c2.8-2.4,5.3-5.1,7.6-8c1.1-1.3,2-2.8,2.8-4.3
		c0.3-0.7,0.6-1.5,0.9-2.2v-0.2h5.8l4.4,10.7L265.2,44.7z M187,73.3c-0.7-0.1-1.3-0.4-1.8-1c-0.3-0.6-0.3-1.4,0-2
		c0.6-1.2,1.4-2.3,2.5-3.2c0.4-0.3,0.7-0.6,1.1-0.8c-0.5,0.5-0.9,1.2-1.1,1.8c-0.5,1.8,0.3,3.6,2,4.4C188.9,73.1,188,73.3,187,73.3z
		 M191,72.1c-0.3-0.1-0.7-0.3-1-0.5c-0.9-0.5-1.4-1.5-1.4-2.5c0.1-0.9,0.6-1.7,1.3-2.2c1.4-1.6,3.4-2.5,5.6-2.4
		c0.5,0.1,1,0.4,1.2,0.9c0.3,0.7-0.2,1.4-0.5,2c-0.7,1-1.5,1.9-2.3,2.7C193,71,192,71.6,191,72.1L191,72.1z M235.2,34h5
		c-2.4,1.9-4.7,3.9-6.9,6l-0.7,0.7L235.2,34z M245.8,34.9c-0.6,1.5-1.4,3-2.5,4.3c-2,2.7-4.2,5.2-6.7,7.5c-2.1,2-4.4,3.8-6.8,5.4
		c-2.4,1.8-5,3.3-7.6,4.7c-0.1,0-0.2,0-0.2,0h-0.2c2.4-4.3,5.3-8.4,8.6-12.2h0.5l0.4-1l0,0c2-2.2,4.2-4.3,6.5-6.3
		c1.2-1,2.4-2,3.7-2.9l0.5-0.4h4.1C246.1,34.3,246,34.6,245.8,34.9L245.8,34.9z M238,27.1l6.1-14.9l6.1,14.9H238z"/>
	<path class="st0" d="M379.6,2.3c-11.6-0.4-21.3,8.6-21.7,20.2c0,0.4,0,0.9,0,1.3c0,13,9.3,21.5,21.7,21.5
		c11.6,0.4,21.3-8.6,21.8-20.2c0,0,0-0.1,0-0.1c0-0.4,0-0.8,0-1.3C401.4,10.8,392.1,2.3,379.6,2.3z M379.6,38.5
		c-7.8-0.1-14-6.5-13.9-14.3c0,0,0,0,0,0c0-0.1,0-0.3,0-0.4c0-8.6,6-14.7,13.9-14.7c7.7,0,13.9,6.2,13.9,13.9c0,0.3,0,0.5,0,0.8
		C393.7,32,388.4,38.5,379.6,38.5z"/>
	<polygon class="st0" points="456.6,32 433.6,2.9 427.8,2.9 427.8,44.7 434.7,44.7 434.7,15.8 457.6,44.7 463.5,44.7 463.5,2.9 
		456.6,2.9 	"/>
	<path class="st0" d="M505.2,2.7c-3,0-9,0.2-11.5,0.2h-0.8v41.8h0.8c3.8,0,8.5,0.1,11,0.1c15.9,0,23.9-9.7,23.9-21.4
		C528.7,12.4,521.9,2.7,505.2,2.7z M505,37.9c-1,0-2.7,0-4.7-0.1V9.7c1.7-0.1,3.1-0.2,4.8-0.2c9.9,0,15.9,5.4,15.9,13.8
		C520.9,32.2,515.1,37.9,505,37.9z"/>
</g>
<path class="st1" d="M73.3,29.3L52.4,89.5l51.4-60.2H73.3z"/>
<path class="st2" d="M22.3,2.8L1,29.3h30.5L22.3,2.8z"/>
<path class="st2" d="M73.3,29.3h30.5L82.5,2.8L73.3,29.3z"/>
<path class="st2" d="M73.3,29.3L52.4,2.8L31.5,29.3H73.3z"/>
<path class="st3" d="M52.4,2.8H22.3l9.2,26.6L52.4,2.8z"/>
<path class="st1" d="M82.5,2.8H52.4l20.9,26.6L82.5,2.8z"/>
<path class="st3" d="M31.5,29.3l20.9,60.2l20.9-60.2L31.5,29.3z"/>
<path class="st4" d="M1,29.3l51.4,60.2L31.5,29.3H1z"/>
</svg>
